<svg width="121" height="150" viewBox="0 0 121 150" fill="none" xmlns="http://www.w3.org/2000/svg">
<path d="M38.8983 34.5C47.3983 37 51.2316 42.1667 55.3983 46C49.8983 44 38.3983 43 29.8983 43.5C23.9086 43.8523 11.7059 49 9.39825 64C7.39825 77 24.6507 124.302 37.3983 134.5C44.8983 140.5 62.5649 142.333 69.8983 140C67.0649 145.667 56.0983 155.1 36.8983 145.5C17.6983 135.9 6.39825 106.5 3.39825 93C0.620476 80.5 -4.38181 55.7801 7.89825 43.5C20.8983 30.5 35.4061 33.4729 38.8983 34.5Z" fill="#FA5133"/>
<path d="M70.4036 28.6634C64.0064 32.0804 61.7473 37.2533 59.0155 41.2732C63.0957 38.7184 72.1198 36.2373 78.9819 35.5177C83.8174 35.0106 94.355 37.9605 98.5213 51.1303C102.132 62.5441 95.691 107.449 87.0963 118.372C82.0396 124.798 68.2224 128.877 62.0075 127.787C65.1471 132.493 75.3623 139.466 89.1999 128.193C103.038 116.921 107.501 88.9313 107.804 76.3802C108.084 64.7587 108.247 41.8438 96.542 32.4915C84.1512 22.5908 73.0319 27.2595 70.4036 28.6634Z" fill="#FA9633"/>
<path d="M53.2085 32C54.2343 23.9988 50.9927 6.51912 29.8202 0.610504C28.5893 8.40659 31.5436 25.599 53.2085 32Z" fill="#83FA33"/>
<path d="M69.211 14.1511C62.3176 17.5978 58.5426 27.0762 57.5168 31.3845C55.5473 23.014 62.851 13.9459 66.749 10.4582C68.5328 8.86224 70.7939 13.3596 69.211 14.1511Z" fill="#83FA33"/>
<path d="M62.0858 100.899C58.1387 87.7418 42.35 77.3257 34.9491 73.7623C47.1651 74.5422 54.3342 78.5096 61.8429 82.6651L62.0858 82.7995C71.5147 70.8754 102.078 38.9112 120.471 33.4684C102.709 40.7048 74.1466 81.4373 62.0858 100.899Z" fill="#5BC913"/>
</svg>
